# xmcd
# 
# Track frame offsets:
#     150
#     20512
#     30837
#     50912
#     64107
#     78357
#     90537
#     110742
#     126817
#     144657
#     153490
#     160700
#     175270
#     186830
#     201800
#     218010
#     237282
#     244062
#     262600
# 
# Disc length: 3637
# 
# Revision: 13
# Processed by: cddbd v1.5.2PL0 Copyright (c) Steve Scherf et al.
# Submitted via: fre:ac v1.0.17
# 
DISCID=fc0e3313
DTITLE=Various Artist - O Brother, Where Art Thou?
DYEAR=2001
DGENRE=Soundtrack
TTITLE0=James Carter and The Prisoners - Po Lazarus
TTITLE1=Harry McClintock - Big Rock Candy Mountain
TTITLE2=Norman Blake - You Are My Sunshine
TTITLE3=Alison Krauss - Down To The River To Pray
TTITLE4=Soggy Bottom Boys feat. Dan Tyminski - I Am A Man Of Constant Sorrow
TTITLE5=Chris Thomas King - Hard Time Killing Floor Blues
TTITLE6=Norman Blake - I Am A Man Of Constant Sorrow (instrumental)
TTITLE7=the Whites - Keep On The Sunny Side
TTITLE8=Gillian Welch and Alison Kraus - I'll Fly Away
TTITLE9=Gillian Welch and Alison Krauss and Emmylou Harris - Didn't Leave Nobody But The Baby
TTITLE10=Sarah, Hannah and Leah Peasall - In The Highways
TTITLE11=The Cox Family - I Am Weary (Let Me Rest)
TTITLE12=John Hartford - Man Of Constant Sorrow (Instrumental)
TTITLE13=Ralph Stanley - O Death
TTITLE14=Soggy Bottom Boys feat. Tim Blake Nelson - In The Jailhouse Now
TTITLE15=Soggy Bottom Boys feat. Dan Tyminski - I Am A Man Of Constant Sorrow (with band)
TTITLE16=Joh Hartford - Indian War Whoop
TTITLE17=Fairfield Four - Lonesome Valley
TTITLE18=The Stanley Brothers - Angel Band
EXTD=YEAR: 2001
EXTT0=
EXTT1=
EXTT2=
EXTT3=
EXTT4=
EXTT5=
EXTT6=
EXTT7=
EXTT8=
EXTT9=
EXTT10=
EXTT11=
EXTT12=
EXTT13=
EXTT14=
EXTT15=
EXTT16=
EXTT17=
EXTT18=
PLAYORDER=
